/vscmnt/brussel_pixiu_data/_data_brussel/112/vsc11236/PredSimResults/SUBJ06opt3D/weighted-LRposFixed/expIG/worker_02.mot
version=1
nRows=9
nColumns=50
inDegrees=yes
endheader
                time	         pelvis_tilt	         pelvis_list	     pelvis_rotation	           pelvis_tx	           pelvis_ty	           pelvis_tz	       hip_flexion_r	     hip_adduction_r	      hip_rotation_r	        knee_angle_r	       ankle_angle_r	         mtp_angle_r	       hip_flexion_l	     hip_adduction_l	      hip_rotation_l	        knee_angle_l	       ankle_angle_l	         mtp_angle_l	    lumbar_extension	      lumbar_bending	     lumbar_rotation	 ercspn_r/activation	 intobl_r/activation	 extobl_r/activation	    abd_r/activation	    add_r/activation	hamstrings_r/activation	bifemsh_r/activation	glut_max_r/activation	iliopsoas_r/activation	rect_fem_r/activation	  vasti_r/activation	gastroc_r/activation	 soleus_r/activation	tib_ant_r/activation	 ercspn_l/activation	 intobl_l/activation	 extobl_l/activation	    abd_l/activation	    add_l/activation	hamstrings_l/activation	bifemsh_l/activation	glut_max_l/activation	iliopsoas_l/activation	rect_fem_l/activation	  vasti_l/activation	gastroc_l/activation	 soleus_l/activation	tib_ant_l/activation	
          1.23644579	         -5.98813267	         -1.00387869	          4.59752678	          1.37245483	          0.93076514	         -0.01039777	         32.36653920	         -0.84245514	         -7.34302909	         -9.05741022	          0.06582108	          0.22196139	         -9.75949686	         -0.67403557	         -7.14478405	        -11.55695692	          8.59378660	         33.54067176	         -5.44445768	         -0.21978355	         -8.20084196	          0.18267653	          0.15339072	          0.00999999	          0.00999999	          0.33645379	          0.05924424	          0.07854422	          0.01778196	          0.11560972	          0.01439253	          0.01124491	          0.00999999	          0.00999999	          0.49599172	          0.12749008	          0.00999999	          0.00999999	          0.09059492	          0.00999999	          0.00999999	          0.25213253	          0.01461941	          0.59545724	          0.01454614	          0.00999999	          0.24012364	          0.37954854	          0.02115903	
          1.24881025	         -6.08497760	         -0.93686210	          4.61242639	          1.38923980	          0.92896427	         -0.00958948	         32.47743644	         -0.73304023	         -7.42894042	        -10.71285655	         -0.22689322	          0.21879333	        -10.11544407	         -0.79590446	         -7.56231320	        -12.55410485	          7.61742749	         35.44177094	         -5.10486230	          0.12144205	         -8.67684185	          0.17548689	          0.12718182	          0.00999999	          0.00999999	          0.42249534	          0.06176017	          0.06512387	          0.10918834	          0.09585622	          0.01193337	          0.00999999	          0.01454614	          0.01754372	          0.50475587	          0.17149431	          0.00999999	          0.00999999	          0.07511554	          0.00999999	          0.00999999	          0.20905227	          0.01454614	          0.58759977	          0.01206073	          0.00999999	          0.20389747	          0.35671298	          0.01754372	
          1.26117471	         -6.15525070	         -0.92401218	          4.61363049	          1.40651150	          0.92735144	         -0.00874714	         32.35429314	         -0.65832504	         -7.31239390	        -12.26700725	         -0.48094246	          0.19598757	        -10.33148171	         -1.01318409	         -7.97164166	        -13.88678329	          6.51597609	         37.38955711	         -4.73252044	          0.53110695	         -9.10888409	          0.14550256	          0.10545107	          0.00999999	          0.03185977	          0.35030623	          0.06800548	          0.05399656	          0.09053201	          0.07947787	          0.00999999	          0.02562789	          0.01206073	          0.01454614	          0.55983562	          0.15640693	          0.00999999	          0.00999999	          0.06228102	          0.00999999	          0.00999999	          0.20413893	          0.01206073	          0.57729928	          0.00999999	          0.00999999	          0.16905879	          0.32892371	          0.01454614	
          1.27353916	         -6.20318523	         -0.94852021	          4.58768722	          1.42402673	          0.92600546	         -0.00777163	         32.06056712	         -0.56318914	         -7.33087678	        -13.55601233	         -0.87213561	          0.18266523	        -10.32851751	         -1.31940654	         -8.38602246	        -15.65827236	          5.25374984	         39.37493089	         -4.35772913	          0.97727635	         -9.48335771	          0.14998641	          0.08743331	          0.00999999	          0.07429094	          0.29160365	          0.07343573	          0.04477051	          0.08966198	          0.06589799	          0.00999999	          0.07560200	          0.00999999	          0.01206073	          0.61742567	          0.15936711	          0.00999999	          0.00999999	          0.05163945	          0.00999999	          0.00999999	          0.19366823	          0.00999999	          0.50936129	          0.00999999	          0.00999999	          0.14017279	          0.28943142	          0.01206073	
          1.28590362	         -6.23148459	         -1.00446041	          4.53479259	          1.44154064	          0.92506163	         -0.00667142	         31.67146636	         -0.44279115	         -7.46817407	        -14.71234276	         -1.17018405	          0.14356653	        -10.04548014	         -1.71607696	         -8.81161842	        -17.92848006	          3.76813552	         41.34937171	         -4.00723680	          1.45365353	         -9.79465046	          0.14714654	          0.07249413	          0.00999999	          0.12952045	          0.24902150	          0.07215858	          0.03712086	          0.13831166	          0.05463842	          0.00999999	          0.13652609	          0.00999999	          0.00999999	          0.65463734	          0.19945820	          0.00999999	          0.00999999	          0.04281615	          0.00999999	          0.00999999	          0.16771684	          0.00999999	          0.42232994	          0.00999999	          0.00999999	          0.11622235	          0.23997810	          0.00999999	
          1.29826808	         -6.24355247	         -1.09969572	          4.46089539	          1.45881832	          0.92473235	         -0.00546018	         31.23725966	         -0.27598201	         -7.63135610	        -15.87594576	         -0.93642710	          0.12433861	         -9.44046779	         -2.21872538	         -9.24551159	        -20.71214258	          2.00450197	         43.13967281	         -3.69928579	          1.96591078	        -10.04475056	          0.13747577	          0.06010752	          0.00999999	          0.18751047	          0.20647277	          0.07269790	          0.03077825	          0.13491814	          0.04530270	          0.00999999	          0.22521874	          0.00999999	          0.00999999	          0.60127201	          0.24598388	          0.00999999	          0.00999999	          0.03550042	          0.02185015	          0.08141087	          0.15165942	          0.00999999	          0.35016909	          0.00999999	          0.00999999	          0.09636417	          0.19897456	          0.00999999	
          1.31063254	         -6.24458895	         -1.23040594	          4.37588272	          1.47565976	          0.92523170	         -0.00415854	         30.73288208	         -0.04175724	         -7.70490286	        -16.99069243	         -0.04327440	          0.25246504	         -8.48655861	         -2.82902552	         -9.68341793	        -23.99770889	         -0.02048360	         44.36883434	         -3.44579036	          2.50413215	        -10.24340129	          0.12540066	          0.04983732	          0.00999999	          0.21936486	          0.18915094	          0.06995909	          0.02551936	          0.11583534	          0.03756211	          0.00999999	          0.28710546	          0.00999999	          0.00999999	          0.50296449	          0.26724296	          0.00999999	          0.00999999	          0.02943469	          0.14185703	          0.11909142	          0.13341942	          0.00999999	          0.29033791	          0.00999999	          0.00999999	          0.07989903	          0.16497703	          0.00999999	
          1.32299700	         -6.23938201	         -1.36022545	          4.27787708	          1.49195696	          0.92666386	         -0.00280505	         30.08115148	          0.23317569	         -7.69224891	        -17.82842910	          1.08544388	          0.58272485	         -7.18410561	         -3.51214651	        -10.13709077	        -27.76802016	         -2.14726733	         44.43860776	         -3.25366223	          3.02635867	        -10.38978873	          0.12458261	          0.04132194	          0.00999999	          0.22837086	          0.18479317	          0.07213156	          0.02115903	          0.09604329	          0.03114411	          0.00999999	          0.29990713	          0.00999999	          0.00999999	          0.41702613	          0.26720248	          0.00999999	          0.00999999	          0.02440537	          0.21573130	          0.13292292	          0.11062289	          0.00999999	          0.24072971	          0.00999999	          0.00999999	          0.06624719	          0.13678845	          0.00999999	
          1.33536145	         -6.23014320	         -1.45178659	          4.16373840	          1.50771322	          0.92895167	         -0.00144707	         29.23589804	          0.50547578	         -7.63689797	        -18.24523425	          2.08483176	          1.02854520	         -5.57932725	         -4.22640853	        -10.59164303	        -31.88080100	         -4.49489194	         43.38532481	         -3.12089778	          3.49364705	        -10.47917640	          0.11895049	          0.03426152	          0.00999999	          0.22229330	          0.17506192	          0.07613598	          0.01754372	          0.07963298	          0.02582271	          0.00999999	          0.28618227	          0.00999999	          0.00999999	          0.35291810	          0.26318120	          0.00999999	          0.00999999	          0.02023538	          0.24555618	          0.15724023	          0.11593376	          0.00999999	          0.19959774	          0.00999999	          0.00999999	          0.05492795	          0.11341627	          0.00999999	
